<svg width="25" height="38" viewBox="0 0 25 38" fill="none" xmlns="http://www.w3.org/2000/svg">
<path fill-rule="evenodd" clip-rule="evenodd" d="M22.8795 3.57525C23.4194 3.59149 23.8931 3.60577 24.2175 4.10241C24.682 4.81402 24.5831 5.95404 24.4695 7.26251L24.4682 7.27862L24.4547 7.43371L24.4437 7.56323C24.4378 7.6325 24.4321 7.70221 24.4264 7.77228H0.181752C0.16042 7.54175 0.13921 7.32556 0.119221 7.12182L0.117848 7.10791C-0.0250354 5.65356 -0.104808 4.84161 0.281971 4.06592C0.609486 3.41034 1.33028 3.43164 2.05465 3.49908C2.67745 3.55798 2.86538 2.9729 2.89446 2.2146L2.89632 2.16516C2.93096 1.24664 2.96773 0.271238 3.51098 0.0856296C3.8853 -0.0416897 4.41243 -0.000735097 4.95845 0.0416843C5.2387 0.0634739 5.52388 0.0856296 5.79595 0.0856296H19.3089C19.486 0.0856296 19.6861 0.0771458 19.892 0.0684177C20.5268 0.0415012 21.2152 0.0123264 21.4453 0.222898C21.7504 0.503598 21.7943 1.34332 21.8153 2.13379C21.8173 2.21838 21.8139 2.31884 21.8102 2.42633C21.7985 2.7666 21.7843 3.17883 21.9339 3.39209C22.0629 3.57611 22.319 3.57196 22.538 3.56848H22.54C22.5697 3.56799 22.5987 3.5675 22.6266 3.56756L22.6512 3.56775L22.6698 3.56811C22.6778 3.5683 22.6857 3.56854 22.6936 3.56891C22.731 3.57049 22.7682 3.57177 22.8051 3.57293L22.8795 3.57525ZM3.19225 24.5285L3.18703 24.4565C2.816 19.3739 2.44497 14.2914 2.06984 9.21466C2.06493 9.11682 2.0609 9.02026 2.11995 9.00873H22.6381C22.3235 13.5042 21.994 17.9789 21.6644 22.4535L21.6644 22.4545L21.6642 22.4564C21.4066 25.9546 21.149 29.4526 20.8985 32.9606H20.116C20.0587 33.5302 19.9671 34.2142 19.8739 34.9105L19.8737 34.9116C19.7385 35.9216 19.5998 36.9575 19.5572 37.7083H19.3902C18.902 37.5428 13.1103 35.3783 13.0907 25.8424C13.0912 25.8287 13.0912 25.815 13.0907 25.8014V25.7937L13.0901 25.79L13.0889 25.7741C13.0882 25.7657 13.0873 25.7574 13.0862 25.7491L13.0853 25.7427H14.5205C14.6091 25.7427 14.6977 25.6583 14.7419 25.527C14.8699 25.2189 14.9592 24.8966 15.0076 24.5671C15.8008 25.0123 16.4301 25.6957 16.8041 26.5181C17.1827 25.6813 17.2413 24.7371 16.9691 23.8608C16.6969 22.9846 16.1123 22.2356 15.3239 21.753C15.3552 19.0322 14.3478 16.3995 12.5026 14.3804C12.4751 14.35 12.4415 14.3257 12.4039 14.309C12.3787 14.2978 12.3521 14.2902 12.3248 14.2864C12.312 14.2845 12.2989 14.2836 12.2858 14.2834C12.2155 14.284 12.1476 14.3095 12.0946 14.3553L12.0661 14.3804C10.2422 16.3968 9.22948 19.0043 9.2195 21.7093C8.44555 22.2057 7.87264 22.9551 7.60091 23.8267C7.32918 24.6982 7.37594 25.6365 7.73296 26.4775C8.10906 25.6564 8.73775 24.9736 9.52947 24.5264C9.60888 24.8664 9.71462 25.1999 9.84575 25.5238C9.86239 25.5861 9.89925 25.6412 9.9507 25.6808C10.0021 25.7203 10.0653 25.7421 10.1304 25.7427H11.4762C11.4745 25.759 11.4735 25.7753 11.4733 25.7918C11.4731 25.8018 11.4732 25.8118 11.4736 25.8218C11.4711 35.0916 6.02385 37.42 5.23589 37.7083H5.15032C5.03045 36.9264 4.88781 35.6539 4.75872 34.5021C4.69515 33.9347 4.63482 33.3965 4.58211 32.9606H3.80852C3.60451 30.1757 3.40114 27.3898 3.19777 24.604L3.19756 24.6008L3.19225 24.5285Z" fill="#8047F8"/>
</svg>
